<?xml version="1.0" encoding="UTF-8" standalone="no"?>
<!DOCTYPE svg PUBLIC "-//W3C//DTD SVG 1.1//EN" "http://www.w3.org/Graphics/SVG/1.1/DTD/svg11.dtd">
<svg width="100%" height="100%" viewBox="0 0 4000 4000" version="1.1" xmlns="http://www.w3.org/2000/svg" xmlns:xlink="http://www.w3.org/1999/xlink" xml:space="preserve" xmlns:serif="http://www.serif.com/" style="fill-rule:evenodd;clip-rule:evenodd;stroke-linejoin:round;stroke-miterlimit:1.41421;">
    <g transform="matrix(82.4076,0,0,82.4076,164.223,223.086)">
        <path d="M44.554,20.848C44.554,21.235 44.405,21.577 44.107,21.875L23.304,42.679C23.006,42.976 22.664,43.125 22.277,43.125C21.89,43.125 21.548,42.976 21.25,42.679L0.446,21.875C0.149,21.577 0,21.235 0,20.848C0,20.461 0.149,20.119 0.446,19.821L2.679,17.589C2.976,17.292 3.318,17.143 3.705,17.143C4.092,17.143 4.435,17.292 4.732,17.589L22.277,35.134L39.821,17.589C40.119,17.292 40.461,17.143 40.848,17.143C41.235,17.143 41.577,17.292 41.875,17.589L44.107,19.821C44.405,20.119 44.554,20.461 44.554,20.848ZM44.554,3.705C44.554,4.092 44.405,4.435 44.107,4.732L23.304,25.536C23.006,25.833 22.664,25.982 22.277,25.982C21.89,25.982 21.548,25.833 21.25,25.536L0.446,4.732C0.149,4.435 0,4.092 0,3.705C0,3.318 0.149,2.976 0.446,2.679L2.679,0.446C2.976,0.149 3.318,0 3.705,0C4.092,0 4.435,0.149 4.732,0.446L22.277,17.991L39.821,0.446C40.119,0.149 40.461,0 40.848,0C41.235,0 41.577,0.149 41.875,0.446L44.107,2.679C44.405,2.976 44.554,3.318 44.554,3.705Z" style="fill:rgb(52,52,52);fill-rule:nonzero;"/>
    </g>
</svg>
