<svg xmlns="http://www.w3.org/2000/svg" width="1920" height="1080"><path d="M34,1306L-231,1320L269,1313Z" fill="#bd776a" stroke="#bd776a" stroke-width="1.51"/><path d="M269,1313L-231,1320L933,1340Z" fill="#b76554" stroke="#b76554" stroke-width="1.51"/><path d="M320,1307L269,1313L933,1340Z" fill="#b65948" stroke="#b65948" stroke-width="1.51"/><path d="M1027,-254L1182,-251L1622,-266Z" fill="#ff9f88" stroke="#ff9f88" stroke-width="1.51"/><path d="M397,-269L1027,-254L1622,-266Z" fill="#ffae97" stroke="#ffae97" stroke-width="1.51"/><path d="M1324,1262L933,1340L1634,1306Z" fill="#ae1e1d" stroke="#ae1e1d" stroke-width="1.51"/><path d="M1810,1272L1634,1306L1956,1284Z" fill="#940914" stroke="#940914" stroke-width="1.51"/><path d="M2105,335L2051,464L2123,640Z" fill="#b84231" stroke="#b84231" stroke-width="1.51"/><path d="M2105,335L2123,640L2136,203Z" fill="#b64a38" stroke="#b64a38" stroke-width="1.51"/><path d="M2123,640L2128,702L2136,203Z" fill="#b33c2d" stroke="#b33c2d" stroke-width="1.51"/><path d="M1634,1306L933,1340L2166,1319Z" fill="#9b0b16" stroke="#9b0b16" stroke-width="1.51"/><path d="M1956,1284L1634,1306L2166,1319Z" fill="#880612" stroke="#880612" stroke-width="1.51"/><path d="M2164,1212L1956,1284L2166,1319Z" fill="#7a0311" stroke="#7a0311" stroke-width="1.51"/><path d="M2108,874L1985,934L2166,958Z" fill="#a31017" stroke="#a31017" stroke-width="1.51"/><path d="M1962,1159L2164,1212L2166,958Z" fill="#910813" stroke="#910813" stroke-width="1.51"/><path d="M1985,934L1962,1159L2166,958Z" fill="#9f0d15" stroke="#9f0d15" stroke-width="1.51"/><path d="M2128,702L2108,874L2166,958Z" fill="#a41619" stroke="#a41619" stroke-width="1.51"/><path d="M2136,203L2128,702L2166,958Z" fill="#af2f25" stroke="#af2f25" stroke-width="1.51"/><path d="M2164,1212L2166,1319L2166,958Z" fill="#840511" stroke="#840511" stroke-width="1.51"/><path d="M2022,220L2136,203L2166,20Z" fill="#b96351" stroke="#b96351" stroke-width="1.51"/><path d="M2060,-34L2022,220L2166,20Z" fill="#be6b5a" stroke="#be6b5a" stroke-width="1.51"/><path d="M2117,-218L2060,-34L2166,20Z" fill="#bd7769" stroke="#bd7769" stroke-width="1.51"/><path d="M2136,203L2166,958L2166,20Z" fill="#b24838" stroke="#b24838" stroke-width="1.51"/><path d="M1909,1026L1962,1159L1985,934Z" fill="#a60f16" stroke="#a60f16" stroke-width="1.51"/><path d="M2023,392L2051,464L2105,335Z" fill="#bc4b39" stroke="#bc4b39" stroke-width="1.51"/><path d="M1962,1159L1956,1284L2164,1212Z" fill="#890713" stroke="#890713" stroke-width="1.51"/><path d="M1906,81L2022,220L2060,-34Z" fill="#c86d5a" stroke="#c86d5a" stroke-width="1.51"/><path d="M1920,688L1892,850L2108,874Z" fill="#b91f1d" stroke="#b91f1d" stroke-width="1.51"/><path d="M1945,-62L2060,-34L2117,-218Z" fill="#c67c6c" stroke="#c67c6c" stroke-width="1.51"/><path d="M1920,688L2108,874L2128,702Z" fill="#b4201e" stroke="#b4201e" stroke-width="1.51"/><path d="M2022,220L2105,335L2136,203Z" fill="#bb5947" stroke="#bb5947" stroke-width="1.51"/><path d="M1945,-258L1945,-62L2117,-218Z" fill="#cc8172" stroke="#cc8172" stroke-width="1.51"/><path d="M2051,464L1909,666L2123,640Z" fill="#bd3729" stroke="#bd3729" stroke-width="1.51"/><path d="M2123,640L1920,688L2128,702Z" fill="#b72b23" stroke="#b72b23" stroke-width="1.51"/><path d="M1909,666L1920,688L2123,640Z" fill="#bf2f24" stroke="#bf2f24" stroke-width="1.51"/><path d="M2016,452L1909,666L2051,464Z" fill="#c33f2e" stroke="#c33f2e" stroke-width="1.51"/><path d="M1892,850L1985,934L2108,874Z" fill="#af1619" stroke="#af1619" stroke-width="1.51"/><path d="M2022,220L2023,392L2105,335Z" fill="#be5441" stroke="#be5441" stroke-width="1.51"/><path d="M1888,11L1906,81L1945,-62Z" fill="#d37864" stroke="#d37864" stroke-width="1.51"/><path d="M1894,-87L1945,-62L1945,-258Z" fill="#d48271" stroke="#d48271" stroke-width="1.51"/><path d="M1864,458L1909,666L2016,452Z" fill="#c9412f" stroke="#c9412f" stroke-width="1.51"/><path d="M2022,220L1864,295L2023,392Z" fill="#c75844" stroke="#c75844" stroke-width="1.51"/><path d="M2023,392L2016,452L2051,464Z" fill="#bf4835" stroke="#bf4835" stroke-width="1.51"/><path d="M1945,-62L1906,81L2060,-34Z" fill="#cc7765" stroke="#cc7765" stroke-width="1.51"/><path d="M1865,746L1892,850L1920,688Z" fill="#c62420" stroke="#c62420" stroke-width="1.51"/><path d="M1906,81L1831,256L2022,220Z" fill="#cf6751" stroke="#cf6751" stroke-width="1.51"/><path d="M1864,458L2016,452L2023,392Z" fill="#c64b37" stroke="#c64b37" stroke-width="1.51"/><path d="M1864,295L1864,458L2023,392Z" fill="#cc523d" stroke="#cc523d" stroke-width="1.51"/><path d="M1831,256L1864,295L2022,220Z" fill="#cf6049" stroke="#cf6049" stroke-width="1.51"/><path d="M1859,-265L1894,-87L1945,-258Z" fill="#d88676" stroke="#d88676" stroke-width="1.51"/><path d="M1840,1163L1956,1284L1962,1159Z" fill="#970b13" stroke="#970b13" stroke-width="1.51"/><path d="M1892,850L1909,1026L1985,934Z" fill="#b21319" stroke="#b21319" stroke-width="1.51"/><path d="M1882,1026L1840,1163L1909,1026Z" fill="#ab1016" stroke="#ab1016" stroke-width="1.51"/><path d="M1892,850L1882,1026L1909,1026Z" fill="#b31218" stroke="#b31218" stroke-width="1.51"/><path d="M1864,458L1790,644L1909,666Z" fill="#cf3c2b" stroke="#cf3c2b" stroke-width="1.51"/><path d="M1840,1163L1810,1272L1956,1284Z" fill="#960a14" stroke="#960a14" stroke-width="1.51"/><path d="M1909,1026L1840,1163L1962,1159Z" fill="#a40e15" stroke="#a40e15" stroke-width="1.51"/><path d="M1894,-87L1888,11L1945,-62Z" fill="#d57d6b" stroke="#d57d6b" stroke-width="1.51"/><path d="M1859,-265L1720,-183L1894,-87Z" fill="#df8776" stroke="#df8776" stroke-width="1.51"/><path d="M1727,143L1831,256L1906,81Z" fill="#d76d55" stroke="#d76d55" stroke-width="1.51"/><path d="M1909,666L1865,746L1920,688Z" fill="#c82c23" stroke="#c82c23" stroke-width="1.51"/><path d="M1718,362L1864,458L1864,295Z" fill="#d5563f" stroke="#d5563f" stroke-width="1.51"/><path d="M1663,852L1755,1073L1882,1026Z" fill="#bb1419" stroke="#bb1419" stroke-width="1.51"/><path d="M1755,1073L1840,1163L1882,1026Z" fill="#ad1116" stroke="#ad1116" stroke-width="1.51"/><path d="M1663,852L1882,1026L1892,850Z" fill="#be181b" stroke="#be181b" stroke-width="1.51"/><path d="M1790,644L1865,746L1909,666Z" fill="#cc2f24" stroke="#cc2f24" stroke-width="1.51"/><path d="M1888,11L1706,111L1906,81Z" fill="#d9755f" stroke="#d9755f" stroke-width="1.51"/><path d="M1706,111L1727,143L1906,81Z" fill="#db725b" stroke="#db725b" stroke-width="1.51"/><path d="M1865,746L1663,852L1892,850Z" fill="#c7211e" stroke="#c7211e" stroke-width="1.51"/><path d="M1672,-93L1888,11L1894,-87Z" fill="#dd816d" stroke="#dd816d" stroke-width="1.51"/><path d="M1720,-183L1672,-93L1894,-87Z" fill="#e18673" stroke="#e18673" stroke-width="1.51"/><path d="M1672,-93L1706,111L1888,11Z" fill="#df7d67" stroke="#df7d67" stroke-width="1.51"/><path d="M1649,569L1790,644L1864,458Z" fill="#d6422f" stroke="#d6422f" stroke-width="1.51"/><path d="M1182,-251L1281,-217L1622,-266Z" fill="#fd9a85" stroke="#fd9a85" stroke-width="1.51"/><path d="M1622,-266L1720,-183L1859,-265Z" fill="#e68d7c" stroke="#e68d7c" stroke-width="1.51"/><path d="M1669,422L1649,569L1864,458Z" fill="#da4b36" stroke="#da4b36" stroke-width="1.51"/><path d="M1831,256L1718,362L1864,295Z" fill="#d65d46" stroke="#d65d46" stroke-width="1.51"/><path d="M1790,644L1685,704L1865,746Z" fill="#d12f25" stroke="#d12f25" stroke-width="1.51"/><path d="M1685,704L1663,852L1865,746Z" fill="#d02621" stroke="#d02621" stroke-width="1.51"/><path d="M1672,1269L1634,1306L1810,1272Z" fill="#9a0b15" stroke="#9a0b15" stroke-width="1.51"/><path d="M1718,362L1669,422L1864,458Z" fill="#d9523c" stroke="#d9523c" stroke-width="1.51"/><path d="M1647,1165L1672,1269L1810,1272Z" fill="#a10d15" stroke="#a10d15" stroke-width="1.51"/><path d="M1647,1165L1810,1272L1840,1163Z" fill="#a30e15" stroke="#a30e15" stroke-width="1.51"/><path d="M1755,1073L1647,1165L1840,1163Z" fill="#ae1117" stroke="#ae1117" stroke-width="1.51"/><path d="M1672,-93L1630,-53L1706,111Z" fill="#e6816b" stroke="#e6816b" stroke-width="1.51"/><path d="M1727,143L1718,362L1831,256Z" fill="#da644c" stroke="#da644c" stroke-width="1.51"/><path d="M1663,852L1589,1084L1755,1073Z" fill="#bf151b" stroke="#bf151b" stroke-width="1.51"/><path d="M1649,569L1685,704L1790,644Z" fill="#d7382a" stroke="#d7382a" stroke-width="1.51"/><path d="M1510,230L1607,360L1727,143Z" fill="#e4684f" stroke="#e4684f" stroke-width="1.51"/><path d="M1607,360L1718,362L1727,143Z" fill="#df624a" stroke="#df624a" stroke-width="1.51"/><path d="M1589,1084L1647,1165L1755,1073Z" fill="#b51318" stroke="#b51318" stroke-width="1.51"/><path d="M1513,1018L1589,1084L1663,852Z" fill="#c5161b" stroke="#c5161b" stroke-width="1.51"/><path d="M1630,-53L1559,1L1706,111Z" fill="#e87f68" stroke="#e87f68" stroke-width="1.51"/><path d="M1706,111L1510,230L1727,143Z" fill="#e37158" stroke="#e37158" stroke-width="1.51"/><path d="M1622,-266L1672,-93L1720,-183Z" fill="#e98c79" stroke="#e98c79" stroke-width="1.51"/><path d="M1649,569L1598,586L1685,704Z" fill="#dc3c2c" stroke="#dc3c2c" stroke-width="1.51"/><path d="M1607,360L1669,422L1718,362Z" fill="#df5840" stroke="#df5840" stroke-width="1.51"/><path d="M1553,684L1663,852L1685,704Z" fill="#d82a23" stroke="#d82a23" stroke-width="1.51"/><path d="M1559,1L1510,230L1706,111Z" fill="#e7775e" stroke="#e7775e" stroke-width="1.51"/><path d="M741,1293L320,1307L933,1340Z" fill="#b64f3d" stroke="#b64f3d" stroke-width="1.51"/><path d="M1281,-217L1405,-178L1622,-266Z" fill="#f89681" stroke="#f89681" stroke-width="1.51"/><path d="M1534,842L1513,1018L1663,852Z" fill="#ce1c1e" stroke="#ce1c1e" stroke-width="1.51"/><path d="M1553,684L1534,842L1663,852Z" fill="#d72722" stroke="#d72722" stroke-width="1.51"/><path d="M1518,513L1649,569L1669,422Z" fill="#e14b36" stroke="#e14b36" stroke-width="1.51"/><path d="M1495,-75L1630,-53L1672,-93Z" fill="#ec8873" stroke="#ec8873" stroke-width="1.51"/><path d="M1622,-266L1495,-75L1672,-93Z" fill="#ed8c77" stroke="#ed8c77" stroke-width="1.51"/><path d="M1598,586L1553,684L1685,704Z" fill="#dc382a" stroke="#dc382a" stroke-width="1.51"/><path d="M1518,513L1598,586L1649,569Z" fill="#e14531" stroke="#e14531" stroke-width="1.51"/><path d="M1607,360L1518,513L1669,422Z" fill="#e2533d" stroke="#e2533d" stroke-width="1.51"/><path d="M1647,1165L1634,1306L1672,1269Z" fill="#a30e16" stroke="#a30e16" stroke-width="1.51"/><path d="M1427,1187L1634,1306L1647,1165Z" fill="#ac1018" stroke="#ac1018" stroke-width="1.51"/><path d="M1510,230L1489,292L1607,360Z" fill="#e8654c" stroke="#e8654c" stroke-width="1.51"/><path d="M1376,1224L1324,1262L1634,1306Z" fill="#ac171a" stroke="#ac171a" stroke-width="1.51"/><path d="M1589,1084L1427,1187L1647,1165Z" fill="#b91519" stroke="#b91519" stroke-width="1.51"/><path d="M1405,-178L1495,-75L1622,-266Z" fill="#f3907c" stroke="#f3907c" stroke-width="1.51"/><path d="M1427,1187L1376,1224L1634,1306Z" fill="#ae1619" stroke="#ae1619" stroke-width="1.51"/><path d="M1495,-75L1559,1L1630,-53Z" fill="#ee8670" stroke="#ee8670" stroke-width="1.51"/><path d="M1389,44L1510,230L1559,1Z" fill="#ef7d63" stroke="#ef7d63" stroke-width="1.51"/><path d="M1404,409L1518,513L1607,360Z" fill="#e8573f" stroke="#e8573f" stroke-width="1.51"/><path d="M1489,292L1404,409L1607,360Z" fill="#e96046" stroke="#e96046" stroke-width="1.51"/><path d="M1087,1257L933,1340L1324,1262Z" fill="#b62f25" stroke="#b62f25" stroke-width="1.51"/><path d="M1429,587L1553,684L1598,586Z" fill="#e43f2e" stroke="#e43f2e" stroke-width="1.51"/><path d="M1518,513L1429,587L1598,586Z" fill="#e64733" stroke="#e64733" stroke-width="1.51"/><path d="M1438,871L1513,1018L1534,842Z" fill="#d22120" stroke="#d22120" stroke-width="1.51"/><path d="M1433,714L1534,842L1553,684Z" fill="#e02e26" stroke="#e02e26" stroke-width="1.51"/><path d="M1513,1018L1427,1187L1589,1084Z" fill="#c0191b" stroke="#c0191b" stroke-width="1.51"/><path d="M1429,587L1433,714L1553,684Z" fill="#e53c2d" stroke="#e53c2d" stroke-width="1.51"/><path d="M1495,-75L1389,44L1559,1Z" fill="#f1866f" stroke="#f1866f" stroke-width="1.51"/><path d="M1333,179L1365,225L1389,44Z" fill="#f47c61" stroke="#f47c61" stroke-width="1.51"/><path d="M1337,95L1333,179L1389,44Z" fill="#f68166" stroke="#f68166" stroke-width="1.51"/><path d="M1389,44L1365,225L1510,230Z" fill="#f0785d" stroke="#f0785d" stroke-width="1.51"/><path d="M1438,871L1386,997L1513,1018Z" fill="#d0201f" stroke="#d0201f" stroke-width="1.51"/><path d="M1386,997L1427,1187L1513,1018Z" fill="#c71e1d" stroke="#c71e1d" stroke-width="1.51"/><path d="M1433,714L1438,871L1534,842Z" fill="#dd2b24" stroke="#dd2b24" stroke-width="1.51"/><path d="M1386,997L1331,1104L1427,1187Z" fill="#c8211e" stroke="#c8211e" stroke-width="1.51"/><path d="M1362,470L1429,587L1518,513Z" fill="#eb4f38" stroke="#eb4f38" stroke-width="1.51"/><path d="M1404,409L1362,470L1518,513Z" fill="#ec573e" stroke="#ec573e" stroke-width="1.51"/><path d="M1365,225L1489,292L1510,230Z" fill="#ed6d53" stroke="#ed6d53" stroke-width="1.51"/><path d="M1405,-178L1329,-82L1495,-75Z" fill="#f8927b" stroke="#f8927b" stroke-width="1.51"/><path d="M1329,-82L1389,44L1495,-75Z" fill="#f68c75" stroke="#f68c75" stroke-width="1.51"/><path d="M1365,225L1404,409L1489,292Z" fill="#ee684d" stroke="#ee684d" stroke-width="1.51"/><path d="M1322,1053L1331,1104L1386,997Z" fill="#ce2420" stroke="#ce2420" stroke-width="1.51"/><path d="M1365,225L1278,347L1404,409Z" fill="#f2694d" stroke="#f2694d" stroke-width="1.51"/><path d="M1362,470L1326,582L1429,587Z" fill="#ef4f38" stroke="#ef4f38" stroke-width="1.51"/><path d="M1429,587L1326,582L1433,714Z" fill="#eb4431" stroke="#eb4431" stroke-width="1.51"/><path d="M1235,708L1308,906L1433,714Z" fill="#e83629" stroke="#e83629" stroke-width="1.51"/><path d="M1433,714L1308,906L1438,871Z" fill="#df2e26" stroke="#df2e26" stroke-width="1.51"/><path d="M1308,906L1386,997L1438,871Z" fill="#d82622" stroke="#d82622" stroke-width="1.51"/><path d="M1331,1104L1376,1224L1427,1187Z" fill="#be1f1d" stroke="#be1f1d" stroke-width="1.51"/><path d="M1326,582L1235,708L1433,714Z" fill="#ee4230" stroke="#ee4230" stroke-width="1.51"/><path d="M1281,-217L1329,-82L1405,-178Z" fill="#fd9680" stroke="#fd9680" stroke-width="1.51"/><path d="M1278,347L1362,470L1404,409Z" fill="#f26045" stroke="#f26045" stroke-width="1.51"/><path d="M1329,-82L1337,95L1389,44Z" fill="#f88970" stroke="#f88970" stroke-width="1.51"/><path d="M1331,1104L1324,1262L1376,1224Z" fill="#bc201d" stroke="#bc201d" stroke-width="1.51"/><path d="M1308,906L1322,1053L1386,997Z" fill="#d42621" stroke="#d42621" stroke-width="1.51"/><path d="M1235,708L1174,827L1308,906Z" fill="#e9382a" stroke="#e9382a" stroke-width="1.51"/><path d="M1172,-66L1207,111L1329,-82Z" fill="#fe9277" stroke="#fe9277" stroke-width="1.51"/><path d="M1329,-82L1207,111L1337,95Z" fill="#fb8a6f" stroke="#fb8a6f" stroke-width="1.51"/><path d="M1215,435L1326,582L1362,470Z" fill="#f4583e" stroke="#f4583e" stroke-width="1.51"/><path d="M1278,347L1215,435L1362,470Z" fill="#f56246" stroke="#f56246" stroke-width="1.51"/><path d="M1333,179L1278,347L1365,225Z" fill="#f57356" stroke="#f57356" stroke-width="1.51"/><path d="M1167,1126L1324,1262L1331,1104Z" fill="#c6251f" stroke="#c6251f" stroke-width="1.51"/><path d="M1171,168L1171,330L1278,347Z" fill="#f97558" stroke="#f97558" stroke-width="1.51"/><path d="M1308,906L1134,1049L1322,1053Z" fill="#d72b24" stroke="#d72b24" stroke-width="1.51"/><path d="M1218,694L1235,708L1326,582Z" fill="#f24632" stroke="#f24632" stroke-width="1.51"/><path d="M1281,-217L1172,-66L1329,-82Z" fill="#ff9880" stroke="#ff9880" stroke-width="1.51"/><path d="M1171,168L1278,347L1333,179Z" fill="#f9785a" stroke="#f9785a" stroke-width="1.51"/><path d="M1207,111L1333,179L1337,95Z" fill="#f98165" stroke="#f98165" stroke-width="1.51"/><path d="M1207,111L1171,168L1333,179Z" fill="#fa8165" stroke="#fa8165" stroke-width="1.51"/><path d="M397,-269L755,-174L1027,-254Z" fill="#ffbea8" stroke="#ffbea8" stroke-width="1.51"/><path d="M1322,1053L1167,1126L1331,1104Z" fill="#ce2721" stroke="#ce2721" stroke-width="1.51"/><path d="M1167,1126L1098,1225L1324,1262Z" fill="#c12b22" stroke="#c12b22" stroke-width="1.51"/><path d="M1104,617L1218,694L1326,582Z" fill="#f44e36" stroke="#f44e36" stroke-width="1.51"/><path d="M1215,435L1104,617L1326,582Z" fill="#f6583d" stroke="#f6583d" stroke-width="1.51"/><path d="M1098,1225L1087,1257L1324,1262Z" fill="#bb2b23" stroke="#bb2b23" stroke-width="1.51"/><path d="M1134,1049L1167,1126L1322,1053Z" fill="#d12e24" stroke="#d12e24" stroke-width="1.51"/><path d="M1084,518L1104,617L1215,435Z" fill="#f86043" stroke="#f86043" stroke-width="1.51"/><path d="M1174,827L1134,1049L1308,906Z" fill="#df3328" stroke="#df3328" stroke-width="1.51"/><path d="M1171,330L1215,435L1278,347Z" fill="#f86b4d" stroke="#f86b4d" stroke-width="1.51"/><path d="M1182,-251L1172,-66L1281,-217Z" fill="#ff9e86" stroke="#ff9e86" stroke-width="1.51"/><path d="M1031,879L1134,1049L1174,827Z" fill="#e33c2d" stroke="#e33c2d" stroke-width="1.51"/><path d="M1172,-66L1084,129L1207,111Z" fill="#fe9073" stroke="#fe9073" stroke-width="1.51"/><path d="M1218,694L1174,827L1235,708Z" fill="#f0402e" stroke="#f0402e" stroke-width="1.51"/><path d="M1048,218L1171,330L1171,168Z" fill="#fb7f60" stroke="#fb7f60" stroke-width="1.51"/><path d="M1027,-254L1172,-66L1182,-251Z" fill="#ffa48b" stroke="#ffa48b" stroke-width="1.51"/><path d="M1027,736L1174,827L1218,694Z" fill="#f14631" stroke="#f14631" stroke-width="1.51"/><path d="M1104,617L1027,736L1218,694Z" fill="#f45037" stroke="#f45037" stroke-width="1.51"/><path d="M1171,330L1084,518L1215,435Z" fill="#f8694b" stroke="#f8694b" stroke-width="1.51"/><path d="M998,380L1084,518L1171,330Z" fill="#f96f51" stroke="#f96f51" stroke-width="1.51"/><path d="M1084,129L1171,168L1207,111Z" fill="#fc896b" stroke="#fc896b" stroke-width="1.51"/><path d="M995,-61L1084,129L1172,-66Z" fill="#ff9a7e" stroke="#ff9a7e" stroke-width="1.51"/><path d="M1027,-254L995,-61L1172,-66Z" fill="#ffa48b" stroke="#ffa48b" stroke-width="1.51"/><path d="M1084,129L1048,218L1171,168Z" fill="#fc8869" stroke="#fc8869" stroke-width="1.51"/><path d="M1027,736L1031,879L1174,827Z" fill="#ed4732" stroke="#ed4732" stroke-width="1.51"/><path d="M1031,1166L1098,1225L1167,1126Z" fill="#c93527" stroke="#c93527" stroke-width="1.51"/><path d="M1048,218L998,380L1171,330Z" fill="#fb7b5b" stroke="#fb7b5b" stroke-width="1.51"/><path d="M1021,662L1027,736L1104,617Z" fill="#f6553b" stroke="#f6553b" stroke-width="1.51"/><path d="M1134,1049L1031,1166L1167,1126Z" fill="#d03628" stroke="#d03628" stroke-width="1.51"/><path d="M942,-171L995,-61L1027,-254Z" fill="#ffaa91" stroke="#ffaa91" stroke-width="1.51"/><path d="M1031,879L965,986L1134,1049Z" fill="#df3f2f" stroke="#df3f2f" stroke-width="1.51"/><path d="M965,986L1031,1166L1134,1049Z" fill="#d63d2c" stroke="#d63d2c" stroke-width="1.51"/><path d="M965,986L929,1042L1031,1166Z" fill="#d7432f" stroke="#d7432f" stroke-width="1.51"/><path d="M995,-61L924,131L1084,129Z" fill="#ff987a" stroke="#ff987a" stroke-width="1.51"/><path d="M1084,518L1021,662L1104,617Z" fill="#f85d40" stroke="#f85d40" stroke-width="1.51"/><path d="M920,552L1021,662L1084,518Z" fill="#f96345" stroke="#f96345" stroke-width="1.51"/><path d="M1031,1166L1087,1257L1098,1225Z" fill="#c23528" stroke="#c23528" stroke-width="1.51"/><path d="M998,380L920,552L1084,518Z" fill="#fb6d4d" stroke="#fb6d4d" stroke-width="1.51"/><path d="M936,154L1048,218L1084,129Z" fill="#fd8d6e" stroke="#fd8d6e" stroke-width="1.51"/><path d="M924,131L936,154L1084,129Z" fill="#fe9273" stroke="#fe9273" stroke-width="1.51"/><path d="M1031,1166L937,1204L1087,1257Z" fill="#c53a2a" stroke="#c53a2a" stroke-width="1.51"/><path d="M937,1204L933,1340L1087,1257Z" fill="#bc3a2b" stroke="#bc3a2b" stroke-width="1.51"/><path d="M1027,736L939,791L1031,879Z" fill="#ef4e37" stroke="#ef4e37" stroke-width="1.51"/><path d="M678,1272L320,1307L741,1293Z" fill="#bb5643" stroke="#bb5643" stroke-width="1.51"/><path d="M936,154L819,291L998,380Z" fill="#fd8868" stroke="#fd8868" stroke-width="1.51"/><path d="M819,291L826,321L998,380Z" fill="#fc8464" stroke="#fc8464" stroke-width="1.51"/><path d="M755,-174L942,-171L1027,-254Z" fill="#ffb199" stroke="#ffb199" stroke-width="1.51"/><path d="M936,154L998,380L1048,218Z" fill="#fd8666" stroke="#fd8666" stroke-width="1.51"/><path d="M863,520L920,552L998,380Z" fill="#fc7351" stroke="#fc7351" stroke-width="1.51"/><path d="M1021,662L939,791L1027,736Z" fill="#f5533a" stroke="#f5533a" stroke-width="1.51"/><path d="M929,1042L937,1204L1031,1166Z" fill="#d1412e" stroke="#d1412e" stroke-width="1.51"/><path d="M888,886L965,986L1031,879Z" fill="#e64934" stroke="#e64934" stroke-width="1.51"/><path d="M939,791L888,886L1031,879Z" fill="#eb4e37" stroke="#eb4e37" stroke-width="1.51"/><path d="M889,-101L924,131L995,-61Z" fill="#ffa387" stroke="#ffa387" stroke-width="1.51"/><path d="M783,713L939,791L1021,662Z" fill="#f65a3f" stroke="#f65a3f" stroke-width="1.51"/><path d="M920,552L783,713L1021,662Z" fill="#f86346" stroke="#f86346" stroke-width="1.51"/><path d="M889,-101L819,-66L924,131Z" fill="#ffa78b" stroke="#ffa78b" stroke-width="1.51"/><path d="M942,-171L889,-101L995,-61Z" fill="#ffaa90" stroke="#ffaa90" stroke-width="1.51"/><path d="M826,321L863,520L998,380Z" fill="#fc7c5b" stroke="#fc7c5b" stroke-width="1.51"/><path d="M826,321L820,507L863,520Z" fill="#fc7c5b" stroke="#fc7c5b" stroke-width="1.51"/><path d="M929,1042L798,1096L937,1204Z" fill="#d34833" stroke="#d34833" stroke-width="1.51"/><path d="M888,886L929,1042L965,986Z" fill="#e14934" stroke="#e14934" stroke-width="1.51"/><path d="M863,520L783,713L920,552Z" fill="#fa6c4d" stroke="#fa6c4d" stroke-width="1.51"/><path d="M819,-66L763,122L924,131Z" fill="#ffa285" stroke="#ffa285" stroke-width="1.51"/><path d="M888,886L741,1031L929,1042Z" fill="#e04f39" stroke="#e04f39" stroke-width="1.51"/><path d="M769,140L819,291L936,154Z" fill="#fe9576" stroke="#fe9576" stroke-width="1.51"/><path d="M741,1293L933,1340L937,1204Z" fill="#bb4232" stroke="#bb4232" stroke-width="1.51"/><path d="M755,-174L889,-101L942,-171Z" fill="#ffb199" stroke="#ffb199" stroke-width="1.51"/><path d="M924,131L769,140L936,154Z" fill="#fe9979" stroke="#fe9979" stroke-width="1.51"/><path d="M786,844L888,886L939,791Z" fill="#ee553d" stroke="#ee553d" stroke-width="1.51"/><path d="M783,713L786,844L939,791Z" fill="#f35c41" stroke="#f35c41" stroke-width="1.51"/><path d="M798,1096L741,1293L937,1204Z" fill="#c84936" stroke="#c84936" stroke-width="1.51"/><path d="M741,1031L798,1096L929,1042Z" fill="#d94f39" stroke="#d94f39" stroke-width="1.51"/><path d="M397,-269L594,-151L755,-174Z" fill="#ffc5b0" stroke="#ffc5b0" stroke-width="1.51"/><path d="M763,122L769,140L924,131Z" fill="#fe9d7e" stroke="#fe9d7e" stroke-width="1.51"/><path d="M691,589L783,713L820,507Z" fill="#fa7152" stroke="#fa7152" stroke-width="1.51"/><path d="M820,507L783,713L863,520Z" fill="#fb7050" stroke="#fb7050" stroke-width="1.51"/><path d="M786,844L741,1031L888,886Z" fill="#e6553e" stroke="#e6553e" stroke-width="1.51"/><path d="M755,-174L819,-66L889,-101Z" fill="#ffb299" stroke="#ffb299" stroke-width="1.51"/><path d="M681,1167L741,1293L798,1096Z" fill="#cb503c" stroke="#cb503c" stroke-width="1.51"/><path d="M-87,-236L268,-227L397,-269Z" fill="#ffe0d3" stroke="#ffe0d3" stroke-width="1.51"/><path d="M783,713L685,757L786,844Z" fill="#f46347" stroke="#f46347" stroke-width="1.51"/><path d="M769,140L621,190L819,291Z" fill="#fd9b7b" stroke="#fd9b7b" stroke-width="1.51"/><path d="M681,-60L763,122L819,-66Z" fill="#ffae93" stroke="#ffae93" stroke-width="1.51"/><path d="M819,291L590,363L826,321Z" fill="#fc8e6d" stroke="#fc8e6d" stroke-width="1.51"/><path d="M600,470L820,507L826,321Z" fill="#fc8362" stroke="#fc8362" stroke-width="1.51"/><path d="M590,363L600,470L826,321Z" fill="#fc8d6c" stroke="#fc8d6c" stroke-width="1.51"/><path d="M755,-174L681,-60L819,-66Z" fill="#ffb59d" stroke="#ffb59d" stroke-width="1.51"/><path d="M600,470L691,589L820,507Z" fill="#fc7d5d" stroke="#fc7d5d" stroke-width="1.51"/><path d="M621,190L590,363L819,291Z" fill="#fd9777" stroke="#fd9777" stroke-width="1.51"/><path d="M681,1167L678,1272L741,1293Z" fill="#c1503c" stroke="#c1503c" stroke-width="1.51"/><path d="M681,-60L620,79L763,122Z" fill="#ffad91" stroke="#ffad91" stroke-width="1.51"/><path d="M576,886L741,1031L786,844Z" fill="#e75c44" stroke="#e75c44" stroke-width="1.51"/><path d="M741,1031L681,1167L798,1096Z" fill="#d6543d" stroke="#d6543d" stroke-width="1.51"/><path d="M523,1222L320,1307L678,1272Z" fill="#bf5c49" stroke="#bf5c49" stroke-width="1.51"/><path d="M641,1077L681,1167L741,1031Z" fill="#d75841" stroke="#d75841" stroke-width="1.51"/><path d="M691,589L685,757L783,713Z" fill="#f86c4f" stroke="#f86c4f" stroke-width="1.51"/><path d="M685,757L576,886L786,844Z" fill="#f06449" stroke="#f06449" stroke-width="1.51"/><path d="M763,122L621,190L769,140Z" fill="#fda183" stroke="#fda183" stroke-width="1.51"/><path d="M620,79L621,190L763,122Z" fill="#fda789" stroke="#fda789" stroke-width="1.51"/><path d="M600,470L658,588L691,589Z" fill="#fc7e5e" stroke="#fc7e5e" stroke-width="1.51"/><path d="M658,588L685,757L691,589Z" fill="#f97354" stroke="#f97354" stroke-width="1.51"/><path d="M576,886L641,1077L741,1031Z" fill="#e05d46" stroke="#e05d46" stroke-width="1.51"/><path d="M594,-151L681,-60L755,-174Z" fill="#ffbba4" stroke="#ffbba4" stroke-width="1.51"/><path d="M397,-269L544,-149L594,-151Z" fill="#ffcab5" stroke="#ffcab5" stroke-width="1.51"/><path d="M523,1222L678,1272L681,1167Z" fill="#c55642" stroke="#c55642" stroke-width="1.51"/><path d="M554,-9L620,79L681,-60Z" fill="#ffb59c" stroke="#ffb59c" stroke-width="1.51"/><path d="M658,588L505,701L685,757Z" fill="#f97456" stroke="#f97456" stroke-width="1.51"/><path d="M505,701L576,886L685,757Z" fill="#f56e52" stroke="#f56e52" stroke-width="1.51"/><path d="M641,1077L523,1222L681,1167Z" fill="#d15b44" stroke="#d15b44" stroke-width="1.51"/><path d="M594,-151L554,-9L681,-60Z" fill="#ffbda5" stroke="#ffbda5" stroke-width="1.51"/><path d="M546,361L590,363L621,190Z" fill="#fd9b7b" stroke="#fd9b7b" stroke-width="1.51"/><path d="M476,1091L523,1222L641,1077Z" fill="#d4614a" stroke="#d4614a" stroke-width="1.51"/><path d="M576,886L467,933L641,1077Z" fill="#e5654c" stroke="#e5654c" stroke-width="1.51"/><path d="M467,933L476,1091L641,1077Z" fill="#de664d" stroke="#de664d" stroke-width="1.51"/><path d="M600,470L444,637L658,588Z" fill="#fd8363" stroke="#fd8363" stroke-width="1.51"/><path d="M444,637L505,701L658,588Z" fill="#fb7e5f" stroke="#fb7e5f" stroke-width="1.51"/><path d="M467,933L444,1048L476,1091Z" fill="#e06a52" stroke="#e06a52" stroke-width="1.51"/><path d="M544,-149L554,-9L594,-151Z" fill="#ffc2ab" stroke="#ffc2ab" stroke-width="1.51"/><path d="M497,453L444,637L600,470Z" fill="#fd8a6b" stroke="#fd8a6b" stroke-width="1.51"/><path d="M475,208L546,361L621,190Z" fill="#fda284" stroke="#fda284" stroke-width="1.51"/><path d="M590,363L546,361L600,470Z" fill="#fd9272" stroke="#fd9272" stroke-width="1.51"/><path d="M430,106L475,208L620,79Z" fill="#fdb195" stroke="#fdb195" stroke-width="1.51"/><path d="M620,79L475,208L621,190Z" fill="#fdaa8d" stroke="#fdaa8d" stroke-width="1.51"/><path d="M554,-9L430,106L620,79Z" fill="#feb69c" stroke="#feb69c" stroke-width="1.51"/><path d="M546,361L497,453L600,470Z" fill="#fd9171" stroke="#fd9171" stroke-width="1.51"/><path d="M505,701L467,933L576,886Z" fill="#f07055" stroke="#f07055" stroke-width="1.51"/><path d="M313,847L467,933L505,701Z" fill="#f2775c" stroke="#f2775c" stroke-width="1.51"/><path d="M475,208L371,290L546,361Z" fill="#fda587" stroke="#fda587" stroke-width="1.51"/><path d="M544,-149L337,-121L554,-9Z" fill="#ffc7b1" stroke="#ffc7b1" stroke-width="1.51"/><path d="M337,-121L430,106L554,-9Z" fill="#fec2ab" stroke="#fec2ab" stroke-width="1.51"/><path d="M371,290L497,453L546,361Z" fill="#fd9c7d" stroke="#fd9c7d" stroke-width="1.51"/><path d="M397,-269L337,-121L544,-149Z" fill="#ffcebb" stroke="#ffcebb" stroke-width="1.51"/><path d="M337,-121L400,107L430,106Z" fill="#fdc2aa" stroke="#fdc2aa" stroke-width="1.51"/><path d="M325,467L307,553L444,637Z" fill="#fe9273" stroke="#fe9273" stroke-width="1.51"/><path d="M416,990L444,1048L467,933Z" fill="#e36d55" stroke="#e36d55" stroke-width="1.51"/><path d="M325,467L444,637L497,453Z" fill="#fe9171" stroke="#fe9171" stroke-width="1.51"/><path d="M296,745L313,847L505,701Z" fill="#f87f62" stroke="#f87f62" stroke-width="1.51"/><path d="M476,1091L336,1119L523,1222Z" fill="#d46850" stroke="#d46850" stroke-width="1.51"/><path d="M336,1119L320,1307L523,1222Z" fill="#c86753" stroke="#c86753" stroke-width="1.51"/><path d="M371,290L325,467L497,453Z" fill="#fd9e7f" stroke="#fd9e7f" stroke-width="1.51"/><path d="M444,637L296,745L505,701Z" fill="#fb8264" stroke="#fb8264" stroke-width="1.51"/><path d="M337,-121L278,-87L400,107Z" fill="#fdcbb6" stroke="#fdcbb6" stroke-width="1.51"/><path d="M430,106L382,210L475,208Z" fill="#fdb296" stroke="#fdb296" stroke-width="1.51"/><path d="M382,210L371,290L475,208Z" fill="#fdad90" stroke="#fdad90" stroke-width="1.51"/><path d="M444,1048L336,1119L476,1091Z" fill="#da6b54" stroke="#da6b54" stroke-width="1.51"/><path d="M400,107L382,210L430,106Z" fill="#fcb79c" stroke="#fcb79c" stroke-width="1.51"/><path d="M313,847L416,990L467,933Z" fill="#ea735a" stroke="#ea735a" stroke-width="1.51"/><path d="M278,-87L216,22L400,107Z" fill="#fec9b4" stroke="#fec9b4" stroke-width="1.51"/><path d="M416,990L336,1119L444,1048Z" fill="#dd6e57" stroke="#dd6e57" stroke-width="1.51"/><path d="M307,553L279,620L444,637Z" fill="#fd8f70" stroke="#fd8f70" stroke-width="1.51"/><path d="M279,620L296,745L444,637Z" fill="#fc8a6c" stroke="#fc8a6c" stroke-width="1.51"/><path d="M-87,-236L126,-180L268,-227Z" fill="#ffe4d8" stroke="#ffe4d8" stroke-width="1.51"/><path d="M234,1199L320,1307L336,1119Z" fill="#cb6e5a" stroke="#cb6e5a" stroke-width="1.51"/><path d="M268,-227L337,-121L397,-269Z" fill="#ffd5c5" stroke="#ffd5c5" stroke-width="1.51"/><path d="M178,945L336,1119L416,990Z" fill="#e2755e" stroke="#e2755e" stroke-width="1.51"/><path d="M313,847L178,945L416,990Z" fill="#eb7961" stroke="#eb7961" stroke-width="1.51"/><path d="M254,166L382,210L400,107Z" fill="#fcb99e" stroke="#fcb99e" stroke-width="1.51"/><path d="M216,22L254,166L400,107Z" fill="#fdc3aa" stroke="#fdc3aa" stroke-width="1.51"/><path d="M185,317L325,467L371,290Z" fill="#fea88c" stroke="#fea88c" stroke-width="1.51"/><path d="M254,166L371,290L382,210Z" fill="#fdb498" stroke="#fdb498" stroke-width="1.51"/><path d="M254,166L185,317L371,290Z" fill="#feb499" stroke="#feb499" stroke-width="1.51"/><path d="M234,1199L269,1313L320,1307Z" fill="#c06b59" stroke="#c06b59" stroke-width="1.51"/><path d="M111,1146L234,1199L336,1119Z" fill="#d67560" stroke="#d67560" stroke-width="1.51"/><path d="M178,945L111,1146L336,1119Z" fill="#df7a64" stroke="#df7a64" stroke-width="1.51"/><path d="M268,-227L278,-87L337,-121Z" fill="#ffd5c3" stroke="#ffd5c3" stroke-width="1.51"/><path d="M296,745L201,769L313,847Z" fill="#f88469" stroke="#f88469" stroke-width="1.51"/><path d="M152,526L307,553L325,467Z" fill="#ff9c7f" stroke="#ff9c7f" stroke-width="1.51"/><path d="M185,317L152,526L325,467Z" fill="#ffa689" stroke="#ffa689" stroke-width="1.51"/><path d="M201,769L183,823L313,847Z" fill="#f6856b" stroke="#f6856b" stroke-width="1.51"/><path d="M183,823L178,945L313,847Z" fill="#f28269" stroke="#f28269" stroke-width="1.51"/><path d="M279,620L201,769L296,745Z" fill="#fc8b6f" stroke="#fc8b6f" stroke-width="1.51"/><path d="M152,526L279,620L307,553Z" fill="#ff997b" stroke="#ff997b" stroke-width="1.51"/><path d="M126,-180L142,-102L268,-227Z" fill="#ffddcf" stroke="#ffddcf" stroke-width="1.51"/><path d="M268,-227L142,-102L278,-87Z" fill="#fed8c8" stroke="#fed8c8" stroke-width="1.51"/><path d="M142,-102L216,22L278,-87Z" fill="#fed5c3" stroke="#fed5c3" stroke-width="1.51"/><path d="M76,588L201,769L279,620Z" fill="#ff9478" stroke="#ff9478" stroke-width="1.51"/><path d="M152,526L76,588L279,620Z" fill="#ff9c7f" stroke="#ff9c7f" stroke-width="1.51"/><path d="M216,22L100,38L254,166Z" fill="#fecab5" stroke="#fecab5" stroke-width="1.51"/><path d="M234,1199L34,1306L269,1313Z" fill="#c27161" stroke="#c27161" stroke-width="1.51"/><path d="M-7,1294L-231,1320L34,1306Z" fill="#bf7a6e" stroke="#bf7a6e" stroke-width="1.51"/><path d="M76,588L58,729L201,769Z" fill="#ff957b" stroke="#ff957b" stroke-width="1.51"/><path d="M26,181L185,317L254,166Z" fill="#febfa7" stroke="#febfa7" stroke-width="1.51"/><path d="M100,38L26,181L254,166Z" fill="#fdc9b4" stroke="#fdc9b4" stroke-width="1.51"/><path d="M58,962L111,1146L178,945Z" fill="#e5826c" stroke="#e5826c" stroke-width="1.51"/><path d="M26,181L73,311L185,317Z" fill="#ffbda5" stroke="#ffbda5" stroke-width="1.51"/><path d="M73,311L152,526L185,317Z" fill="#ffb096" stroke="#ffb096" stroke-width="1.51"/><path d="M111,1146L34,1306L234,1199Z" fill="#cc7866" stroke="#cc7866" stroke-width="1.51"/><path d="M142,-102L100,38L216,22Z" fill="#fed4c3" stroke="#fed4c3" stroke-width="1.51"/><path d="M73,311L44,529L152,526Z" fill="#ffac92" stroke="#ffac92" stroke-width="1.51"/><path d="M24,840L58,962L178,945Z" fill="#f08871" stroke="#f08871" stroke-width="1.51"/><path d="M24,840L178,945L183,823Z" fill="#f38870" stroke="#f38870" stroke-width="1.51"/><path d="M58,729L183,823L201,769Z" fill="#fb8d73" stroke="#fb8d73" stroke-width="1.51"/><path d="M-20,481L44,529L73,311Z" fill="#ffb098" stroke="#ffb098" stroke-width="1.51"/><path d="M58,729L24,840L183,823Z" fill="#fa8f77" stroke="#fa8f77" stroke-width="1.51"/><path d="M58,962L-44,1056L111,1146Z" fill="#e38471" stroke="#e38471" stroke-width="1.51"/><path d="M-60,-35L100,38L142,-102Z" fill="#fedccd" stroke="#fedccd" stroke-width="1.51"/><path d="M44,529L76,588L152,526Z" fill="#ffa488" stroke="#ffa488" stroke-width="1.51"/><path d="M126,-180L-60,-35L142,-102Z" fill="#fee0d3" stroke="#fee0d3" stroke-width="1.51"/><path d="M-7,1294L34,1306L111,1146Z" fill="#c87a6b" stroke="#c87a6b" stroke-width="1.51"/><path d="M-87,-236L-60,-35L126,-180Z" fill="#ffe6da" stroke="#ffe6da" stroke-width="1.51"/><path d="M-82,401L-20,481L73,311Z" fill="#ffb69e" stroke="#ffb69e" stroke-width="1.51"/><path d="M-44,1056L-7,1294L111,1146Z" fill="#d6816e" stroke="#d6816e" stroke-width="1.51"/><path d="M-44,1056L-95,1084L-7,1294Z" fill="#db8472" stroke="#db8472" stroke-width="1.51"/><path d="M24,840L-8,858L58,962Z" fill="#f38d76" stroke="#f38d76" stroke-width="1.51"/><path d="M26,181L-45,257L73,311Z" fill="#ffc3ad" stroke="#ffc3ad" stroke-width="1.51"/><path d="M-67,2L26,181L100,38Z" fill="#fed4c2" stroke="#fed4c2" stroke-width="1.51"/><path d="M-60,-35L-67,2L100,38Z" fill="#fedbcc" stroke="#fedbcc" stroke-width="1.51"/><path d="M-45,257L-82,401L73,311Z" fill="#ffbda6" stroke="#ffbda6" stroke-width="1.51"/><path d="M-86,619L58,729L76,588Z" fill="#ff9f85" stroke="#ff9f85" stroke-width="1.51"/><path d="M44,529L-86,619L76,588Z" fill="#ffa58b" stroke="#ffa58b" stroke-width="1.51"/><path d="M-87,-236L-150,-142L-60,-35Z" fill="#ffe8de" stroke="#ffe8de" stroke-width="1.51"/><path d="M-8,858L-44,1056L58,962Z" fill="#ed8975" stroke="#ed8975" stroke-width="1.51"/><path d="M-100,728L24,840L58,729Z" fill="#fe967d" stroke="#fe967d" stroke-width="1.51"/><path d="M-86,619L-100,728L58,729Z" fill="#ff9c84" stroke="#ff9c84" stroke-width="1.51"/><path d="M-100,728L-8,858L24,840Z" fill="#fa937d" stroke="#fa937d" stroke-width="1.51"/><path d="M-20,481L-86,619L44,529Z" fill="#ffa98f" stroke="#ffa98f" stroke-width="1.51"/><path d="M-67,2L-190,71L26,181Z" fill="#ffd6c5" stroke="#ffd6c5" stroke-width="1.51"/><path d="M-190,71L-45,257L26,181Z" fill="#ffcebb" stroke="#ffcebb" stroke-width="1.51"/><path d="M-95,1084L-221,1175L-7,1294Z" fill="#d58473" stroke="#d58473" stroke-width="1.51"/><path d="M-190,71L-153,268L-45,257Z" fill="#ffcdba" stroke="#ffcdba" stroke-width="1.51"/><path d="M-148,1079L-44,1056L-8,858Z" fill="#ea8a77" stroke="#ea8a77" stroke-width="1.51"/><path d="M-254,863L-148,1079L-8,858Z" fill="#f1907c" stroke="#f1907c" stroke-width="1.51"/><path d="M-157,756L-254,863L-8,858Z" fill="#fb9681" stroke="#fb9681" stroke-width="1.51"/><path d="M-100,728L-157,756L-8,858Z" fill="#fe9780" stroke="#fe9780" stroke-width="1.51"/><path d="M-221,1175L-231,1320L-7,1294Z" fill="#c78073" stroke="#c78073" stroke-width="1.51"/><path d="M-153,268L-82,401L-45,257Z" fill="#ffc1ab" stroke="#ffc1ab" stroke-width="1.51"/><path d="M-148,1079L-95,1084L-44,1056Z" fill="#e38976" stroke="#e38976" stroke-width="1.51"/><path d="M-82,401L-232,481L-20,481Z" fill="#ffb59d" stroke="#ffb59d" stroke-width="1.51"/><path d="M-232,481L-86,619L-20,481Z" fill="#ffae95" stroke="#ffae95" stroke-width="1.51"/><path d="M-148,1079L-221,1175L-95,1084Z" fill="#df8977" stroke="#df8977" stroke-width="1.51"/><path d="M-132,649L-100,728L-86,619Z" fill="#ffa289" stroke="#ffa289" stroke-width="1.51"/><path d="M-153,268L-189,333L-82,401Z" fill="#ffc0ab" stroke="#ffc0ab" stroke-width="1.51"/><path d="M-187,-116L-67,2L-60,-35Z" fill="#ffe4d7" stroke="#ffe4d7" stroke-width="1.51"/><path d="M-150,-142L-187,-116L-60,-35Z" fill="#ffe7dd" stroke="#ffe7dd" stroke-width="1.51"/><path d="M-232,481L-132,649L-86,619Z" fill="#ffaa92" stroke="#ffaa92" stroke-width="1.51"/><path d="M-187,-116L-190,71L-67,2Z" fill="#ffe2d5" stroke="#ffe2d5" stroke-width="1.51"/><path d="M-187,-116L-150,-142L-87,-236Z" fill="#ffebe2" stroke="#ffebe2" stroke-width="1.51"/><path d="M-189,333L-232,481L-82,401Z" fill="#ffbba4" stroke="#ffbba4" stroke-width="1.51"/><path d="M-132,649L-157,756L-100,728Z" fill="#ff9e87" stroke="#ff9e87" stroke-width="1.51"/><path d="M-232,481L-157,756L-132,649Z" fill="#ffa78f" stroke="#ffa78f" stroke-width="1.51"/><path d="M-232,481L-254,863L-157,756Z" fill="#ffa28b" stroke="#ffa28b" stroke-width="1.51"/><path d="M-190,71L-189,333L-153,268Z" fill="#ffcdb9" stroke="#ffcdb9" stroke-width="1.51"/><path d="M-254,863L-221,1175L-148,1079Z" fill="#e78e7c" stroke="#e78e7c" stroke-width="1.51"/><path d="M-190,71L-232,481L-189,333Z" fill="#ffc6b2" stroke="#ffc6b2" stroke-width="1.51"/><path d="M-232,481L-190,71L-187,-116Z" fill="#ffd5c4" stroke="#ffd5c4" stroke-width="1.51"/><path d="M-254,863L-231,1320L-221,1175Z" fill="#df8c7b" stroke="#df8c7b" stroke-width="1.51"/></svg>