<svg xmlns="http://www.w3.org/2000/svg"><path d="M-40,-268L809,-236L1220,-338Z" fill="#dfbedd" stroke="#dfbedd" stroke-width="1.51"/><path d="M940,1349L658,1437L1613,1405Z" fill="#a82d61" stroke="#a82d61" stroke-width="1.51"/><path d="M1950,162L2093,361L2155,57Z" fill="#af5f7e" stroke="#af5f7e" stroke-width="1.51"/><path d="M2093,361L2109,614L2155,57Z" fill="#a85075" stroke="#a85075" stroke-width="1.51"/><path d="M1782,-307L1874,-191L2164,-216Z" fill="#ca8396" stroke="#ca8396" stroke-width="1.51"/><path d="M2119,-83L2155,57L2164,-216Z" fill="#b37484" stroke="#b37484" stroke-width="1.51"/><path d="M2155,57L2109,614L2204,930Z" fill="#ab386a" stroke="#ab386a" stroke-width="1.51"/><path d="M2109,614L2155,832L2204,930Z" fill="#ac1255" stroke="#ac1255" stroke-width="1.51"/><path d="M2075,1091L2182,1258L2204,930Z" fill="#95033b" stroke="#95033b" stroke-width="1.51"/><path d="M2155,832L2075,1091L2204,930Z" fill="#a40944" stroke="#a40944" stroke-width="1.51"/><path d="M2164,-216L2155,57L2204,930Z" fill="#a45775" stroke="#a45775" stroke-width="1.51"/><path d="M1861,874L2075,1091L2155,832Z" fill="#ae0c4d" stroke="#ae0c4d" stroke-width="1.51"/><path d="M2109,614L1923,663L2155,832Z" fill="#b42262" stroke="#b42262" stroke-width="1.51"/><path d="M2075,1091L1964,1104L2182,1258Z" fill="#95023d" stroke="#95023d" stroke-width="1.51"/><path d="M1964,1104L1879,1400L2182,1258Z" fill="#8e003c" stroke="#8e003c" stroke-width="1.51"/><path d="M1923,-129L2119,-83L2164,-216Z" fill="#bd7b8b" stroke="#bd7b8b" stroke-width="1.51"/><path d="M1874,-191L1923,-129L2164,-216Z" fill="#c47f91" stroke="#c47f91" stroke-width="1.51"/><path d="M1861,874L1964,1104L2075,1091Z" fill="#ac0649" stroke="#ac0649" stroke-width="1.51"/><path d="M2093,361L1872,587L2109,614Z" fill="#b53d73" stroke="#b53d73" stroke-width="1.51"/><path d="M1923,663L1861,874L2155,832Z" fill="#ba1460" stroke="#ba1460" stroke-width="1.51"/><path d="M2119,-83L1950,162L2155,57Z" fill="#b46b83" stroke="#b46b83" stroke-width="1.51"/><path d="M1371,1327L940,1349L1613,1405Z" fill="#ad1357" stroke="#ad1357" stroke-width="1.51"/><path d="M1914,310L1872,587L2093,361Z" fill="#b74b7b" stroke="#b74b7b" stroke-width="1.51"/><path d="M1950,162L1914,310L2093,361Z" fill="#b25980" stroke="#b25980" stroke-width="1.51"/><path d="M1872,587L1923,663L2109,614Z" fill="#bb316f" stroke="#bb316f" stroke-width="1.51"/><path d="M1923,-129L1950,162L2119,-83Z" fill="#bc738b" stroke="#bc738b" stroke-width="1.51"/><path d="M1180,1310L940,1349L1371,1327Z" fill="#b12562" stroke="#b12562" stroke-width="1.51"/><path d="M1684,440L1872,587L1914,310Z" fill="#c34b7f" stroke="#c34b7f" stroke-width="1.51"/><path d="M1744,725L1861,874L1923,663Z" fill="#c71b69" stroke="#c71b69" stroke-width="1.51"/><path d="M1699,-30L1798,97L1923,-129Z" fill="#cd7993" stroke="#cd7993" stroke-width="1.51"/><path d="M1923,-129L1798,97L1950,162Z" fill="#c2708e" stroke="#c2708e" stroke-width="1.51"/><path d="M1769,996L1702,1097L1964,1104Z" fill="#b4084d" stroke="#b4084d" stroke-width="1.51"/><path d="M1702,1097L1750,1247L1964,1104Z" fill="#aa0549" stroke="#aa0549" stroke-width="1.51"/><path d="M1861,874L1769,996L1964,1104Z" fill="#b80a4e" stroke="#b80a4e" stroke-width="1.51"/><path d="M1750,1247L1879,1400L1964,1104Z" fill="#990142" stroke="#990142" stroke-width="1.51"/><path d="M1798,97L1914,310L1950,162Z" fill="#bd6488" stroke="#bd6488" stroke-width="1.51"/><path d="M1673,413L1684,440L1914,310Z" fill="#c75484" stroke="#c75484" stroke-width="1.51"/><path d="M1872,587L1744,725L1923,663Z" fill="#c52e71" stroke="#c52e71" stroke-width="1.51"/><path d="M1874,-191L1699,-30L1923,-129Z" fill="#cf8196" stroke="#cf8196" stroke-width="1.51"/><path d="M1798,97L1595,211L1914,310Z" fill="#c7668b" stroke="#c7668b" stroke-width="1.51"/><path d="M1595,211L1673,413L1914,310Z" fill="#c75e88" stroke="#c75e88" stroke-width="1.51"/><path d="M1750,1247L1613,1405L1879,1400Z" fill="#98043d" stroke="#98043d" stroke-width="1.51"/><path d="M1782,-307L1699,-30L1874,-191Z" fill="#d6869a" stroke="#d6869a" stroke-width="1.51"/><path d="M1684,440L1744,725L1872,587Z" fill="#cc3a79" stroke="#cc3a79" stroke-width="1.51"/><path d="M1610,868L1769,996L1861,874Z" fill="#c7135b" stroke="#c7135b" stroke-width="1.51"/><path d="M1744,725L1610,868L1861,874Z" fill="#cc1865" stroke="#cc1865" stroke-width="1.51"/><path d="M1595,211L1575,310L1673,413Z" fill="#d1628c" stroke="#d1628c" stroke-width="1.51"/><path d="M1684,440L1463,584L1744,725Z" fill="#d83e7e" stroke="#d83e7e" stroke-width="1.51"/><path d="M1443,-343L1475,-308L1782,-307Z" fill="#ec93a6" stroke="#ec93a6" stroke-width="1.51"/><path d="M1475,-308L1699,-30L1782,-307Z" fill="#e48c9f" stroke="#e48c9f" stroke-width="1.51"/><path d="M1699,-30L1610,-2L1798,97Z" fill="#d47995" stroke="#d47995" stroke-width="1.51"/><path d="M1610,-2L1595,211L1798,97Z" fill="#d37393" stroke="#d37393" stroke-width="1.51"/><path d="M1475,-308L1610,-2L1699,-30Z" fill="#e3889f" stroke="#e3889f" stroke-width="1.51"/><path d="M1610,868L1702,1097L1769,996Z" fill="#c71054" stroke="#c71054" stroke-width="1.51"/><path d="M1610,868L1534,1053L1702,1097Z" fill="#cb1255" stroke="#cb1255" stroke-width="1.51"/><path d="M1463,584L1461,740L1744,725Z" fill="#dc307a" stroke="#dc307a" stroke-width="1.51"/><path d="M1702,1097L1534,1053L1750,1247Z" fill="#b80a4e" stroke="#b80a4e" stroke-width="1.51"/><path d="M1534,1053L1613,1405L1750,1247Z" fill="#af074a" stroke="#af074a" stroke-width="1.51"/><path d="M1461,740L1610,868L1744,725Z" fill="#da1e6f" stroke="#da1e6f" stroke-width="1.51"/><path d="M1534,1053L1393,1152L1613,1405Z" fill="#b80d54" stroke="#b80d54" stroke-width="1.51"/><path d="M1393,1152L1371,1327L1613,1405Z" fill="#af0e51" stroke="#af0e51" stroke-width="1.51"/><path d="M1673,413L1443,557L1684,440Z" fill="#d74e86" stroke="#d74e86" stroke-width="1.51"/><path d="M1443,557L1463,584L1684,440Z" fill="#db4889" stroke="#db4889" stroke-width="1.51"/><path d="M1575,310L1443,557L1673,413Z" fill="#d7558b" stroke="#d7558b" stroke-width="1.51"/><path d="M1379,991L1534,1053L1610,868Z" fill="#d31760" stroke="#d31760" stroke-width="1.51"/><path d="M1475,-308L1264,-32L1610,-2Z" fill="#e88cac" stroke="#e88cac" stroke-width="1.51"/><path d="M1269,49L1595,211L1610,-2Z" fill="#dd799f" stroke="#dd799f" stroke-width="1.51"/><path d="M1461,740L1379,991L1610,868Z" fill="#da1e6e" stroke="#da1e6e" stroke-width="1.51"/><path d="M1264,-32L1269,49L1610,-2Z" fill="#e483ac" stroke="#e483ac" stroke-width="1.51"/><path d="M1298,290L1443,557L1575,310Z" fill="#da5d97" stroke="#da5d97" stroke-width="1.51"/><path d="M1298,290L1575,310L1595,211Z" fill="#d76898" stroke="#d76898" stroke-width="1.51"/><path d="M1269,49L1298,290L1595,211Z" fill="#dd73a4" stroke="#dd73a4" stroke-width="1.51"/><path d="M-40,-268L609,-185L809,-236Z" fill="#dfc8e2" stroke="#dfc8e2" stroke-width="1.51"/><path d="M1379,991L1393,1152L1534,1053Z" fill="#cc1661" stroke="#cc1661" stroke-width="1.51"/><path d="M809,-236L1044,-257L1220,-338Z" fill="#eda8ce" stroke="#eda8ce" stroke-width="1.51"/><path d="M1237,313L1241,583L1298,290Z" fill="#df62a6" stroke="#df62a6" stroke-width="1.51"/><path d="M1298,290L1241,583L1443,557Z" fill="#e0549c" stroke="#e0549c" stroke-width="1.51"/><path d="M1350,700L1379,991L1461,740Z" fill="#e1247b" stroke="#e1247b" stroke-width="1.51"/><path d="M1350,700L1461,740L1463,584Z" fill="#e13586" stroke="#e13586" stroke-width="1.51"/><path d="M1443,-343L1220,-338L1475,-308Z" fill="#f398b7" stroke="#f398b7" stroke-width="1.51"/><path d="M1220,-338L1264,-32L1475,-308Z" fill="#f096ba" stroke="#f096ba" stroke-width="1.51"/><path d="M1443,557L1350,700L1463,584Z" fill="#e03f8b" stroke="#e03f8b" stroke-width="1.51"/><path d="M1350,700L1118,858L1379,991Z" fill="#e32680" stroke="#e32680" stroke-width="1.51"/><path d="M1241,583L1350,700L1443,557Z" fill="#e34191" stroke="#e34191" stroke-width="1.51"/><path d="M1269,49L1180,228L1298,290Z" fill="#df78af" stroke="#df78af" stroke-width="1.51"/><path d="M1148,745L1118,858L1350,700Z" fill="#e7338e" stroke="#e7338e" stroke-width="1.51"/><path d="M1180,1310L1371,1327L1393,1152Z" fill="#b8145f" stroke="#b8145f" stroke-width="1.51"/><path d="M1147,1053L1180,1310L1393,1152Z" fill="#c41f6a" stroke="#c41f6a" stroke-width="1.51"/><path d="M1379,991L1147,1053L1393,1152Z" fill="#d11b6a" stroke="#d11b6a" stroke-width="1.51"/><path d="M-40,-268L342,-165L609,-185Z" fill="#e0d0e6" stroke="#e0d0e6" stroke-width="1.51"/><path d="M1118,858L1147,1053L1379,991Z" fill="#dc2a76" stroke="#dc2a76" stroke-width="1.51"/><path d="M1220,-338L1044,-257L1264,-32Z" fill="#ef9cc3" stroke="#ef9cc3" stroke-width="1.51"/><path d="M1241,583L1148,745L1350,700Z" fill="#e63d93" stroke="#e63d93" stroke-width="1.51"/><path d="M1264,-32L1215,10L1269,49Z" fill="#e688b7" stroke="#e688b7" stroke-width="1.51"/><path d="M1180,228L1237,313L1298,290Z" fill="#dc70ac" stroke="#dc70ac" stroke-width="1.51"/><path d="M1049,80L1180,228L1215,10Z" fill="#df85b9" stroke="#df85b9" stroke-width="1.51"/><path d="M1044,-257L1053,24L1215,10Z" fill="#e798c3" stroke="#e798c3" stroke-width="1.51"/><path d="M1237,313L930,509L1241,583Z" fill="#df61a9" stroke="#df61a9" stroke-width="1.51"/><path d="M1044,-257L1215,10L1264,-32Z" fill="#ea95c0" stroke="#ea95c0" stroke-width="1.51"/><path d="M1215,10L1180,228L1269,49Z" fill="#e281b5" stroke="#e281b5" stroke-width="1.51"/><path d="M1118,858L1059,939L1147,1053Z" fill="#dc387e" stroke="#dc387e" stroke-width="1.51"/><path d="M1180,228L921,299L1237,313Z" fill="#da78b4" stroke="#da78b4" stroke-width="1.51"/><path d="M921,299L930,509L1237,313Z" fill="#d974b4" stroke="#d974b4" stroke-width="1.51"/><path d="M930,509L1148,745L1241,583Z" fill="#e353a1" stroke="#e353a1" stroke-width="1.51"/><path d="M1147,1053L967,1093L1180,1310Z" fill="#c63173" stroke="#c63173" stroke-width="1.51"/><path d="M1053,24L1049,80L1215,10Z" fill="#e28dbe" stroke="#e28dbe" stroke-width="1.51"/><path d="M967,1093L940,1349L1180,1310Z" fill="#b93470" stroke="#b93470" stroke-width="1.51"/><path d="M1049,80L921,299L1180,228Z" fill="#db83ba" stroke="#db83ba" stroke-width="1.51"/><path d="M1059,939L967,1093L1147,1053Z" fill="#d53a7a" stroke="#d53a7a" stroke-width="1.51"/><path d="M879,826L1118,858L1148,745Z" fill="#e34292" stroke="#e34292" stroke-width="1.51"/><path d="M930,509L879,826L1148,745Z" fill="#e352a1" stroke="#e352a1" stroke-width="1.51"/><path d="M1044,-257L832,-35L1053,24Z" fill="#e5a1cc" stroke="#e5a1cc" stroke-width="1.51"/><path d="M879,826L1059,939L1118,858Z" fill="#df438c" stroke="#df438c" stroke-width="1.51"/><path d="M741,677L879,826L930,509Z" fill="#df61a9" stroke="#df61a9" stroke-width="1.51"/><path d="M809,-236L832,-35L1044,-257Z" fill="#e5acd3" stroke="#e5acd3" stroke-width="1.51"/><path d="M802,68L921,299L1049,80Z" fill="#d98fc4" stroke="#d98fc4" stroke-width="1.51"/><path d="M801,1010L967,1093L1059,939Z" fill="#d54581" stroke="#d54581" stroke-width="1.51"/><path d="M879,826L801,1010L1059,939Z" fill="#da4b8b" stroke="#da4b8b" stroke-width="1.51"/><path d="M832,-35L802,68L1049,80Z" fill="#db9bca" stroke="#db9bca" stroke-width="1.51"/><path d="M832,-35L1049,80L1053,24Z" fill="#e096c7" stroke="#e096c7" stroke-width="1.51"/><path d="M319,1363L55,1423L658,1437Z" fill="#a66178" stroke="#a66178" stroke-width="1.51"/><path d="M-40,-268L222,-172L342,-165Z" fill="#e4d8ea" stroke="#e4d8ea" stroke-width="1.51"/><path d="M921,299L811,452L930,509Z" fill="#d879b8" stroke="#d879b8" stroke-width="1.51"/><path d="M807,1080L686,1277L940,1349Z" fill="#b7497a" stroke="#b7497a" stroke-width="1.51"/><path d="M801,1010L807,1080L967,1093Z" fill="#ce4b82" stroke="#ce4b82" stroke-width="1.51"/><path d="M807,1080L940,1349L967,1093Z" fill="#c1437b" stroke="#c1437b" stroke-width="1.51"/><path d="M802,68L687,323L921,299Z" fill="#d290c4" stroke="#d290c4" stroke-width="1.51"/><path d="M811,452L741,677L930,509Z" fill="#db6fb4" stroke="#db6fb4" stroke-width="1.51"/><path d="M686,1277L658,1437L940,1349Z" fill="#a84971" stroke="#a84971" stroke-width="1.51"/><path d="M687,323L811,452L921,299Z" fill="#d285bf" stroke="#d285bf" stroke-width="1.51"/><path d="M599,720L658,1033L801,1010Z" fill="#d65f93" stroke="#d65f93" stroke-width="1.51"/><path d="M599,720L801,1010L879,826Z" fill="#db5c99" stroke="#db5c99" stroke-width="1.51"/><path d="M741,677L599,720L879,826Z" fill="#de63a7" stroke="#de63a7" stroke-width="1.51"/><path d="M342,-165L517,-156L609,-185Z" fill="#dcc4df" stroke="#dcc4df" stroke-width="1.51"/><path d="M640,460L741,677L811,452Z" fill="#d778b8" stroke="#d778b8" stroke-width="1.51"/><path d="M809,-236L609,-185L832,-35Z" fill="#deb4d7" stroke="#deb4d7" stroke-width="1.51"/><path d="M609,-185L802,68L832,-35Z" fill="#daacd3" stroke="#daacd3" stroke-width="1.51"/><path d="M609,-185L517,-156L802,68Z" fill="#d7b6d8" stroke="#d7b6d8" stroke-width="1.51"/><path d="M482,162L687,323L802,68Z" fill="#ce9ecb" stroke="#ce9ecb" stroke-width="1.51"/><path d="M586,1104L686,1277L807,1080Z" fill="#be5583" stroke="#be5583" stroke-width="1.51"/><path d="M658,1033L586,1104L807,1080Z" fill="#c85a87" stroke="#c85a87" stroke-width="1.51"/><path d="M801,1010L658,1033L807,1080Z" fill="#ce5586" stroke="#ce5586" stroke-width="1.51"/><path d="M687,323L640,460L811,452Z" fill="#d286bf" stroke="#d286bf" stroke-width="1.51"/><path d="M517,-156L482,162L802,68Z" fill="#d2aed4" stroke="#d2aed4" stroke-width="1.51"/><path d="M400,-1L482,162L517,-156Z" fill="#d6b8d9" stroke="#d6b8d9" stroke-width="1.51"/><path d="M640,460L599,720L741,677Z" fill="#d975b3" stroke="#d975b3" stroke-width="1.51"/><path d="M360,927L409,1056L658,1033Z" fill="#d36b90" stroke="#d36b90" stroke-width="1.51"/><path d="M599,720L360,927L658,1033Z" fill="#d86b9b" stroke="#d86b9b" stroke-width="1.51"/><path d="M319,1363L658,1437L686,1277Z" fill="#a65777" stroke="#a65777" stroke-width="1.51"/><path d="M454,400L640,460L687,323Z" fill="#ce8fc4" stroke="#ce8fc4" stroke-width="1.51"/><path d="M475,279L454,400L687,323Z" fill="#cc98c9" stroke="#cc98c9" stroke-width="1.51"/><path d="M482,162L475,279L687,323Z" fill="#cc9ecc" stroke="#cc9ecc" stroke-width="1.51"/><path d="M586,1104L319,1363L686,1277Z" fill="#b45d82" stroke="#b45d82" stroke-width="1.51"/><path d="M353,538L599,720L640,460Z" fill="#d981bb" stroke="#d981bb" stroke-width="1.51"/><path d="M454,400L353,538L640,460Z" fill="#d48ec3" stroke="#d48ec3" stroke-width="1.51"/><path d="M409,1056L586,1104L658,1033Z" fill="#ca648b" stroke="#ca648b" stroke-width="1.51"/><path d="M409,1056L319,1363L586,1104Z" fill="#bf6588" stroke="#bf6588" stroke-width="1.51"/><path d="M316,781L360,927L599,720Z" fill="#de75a8" stroke="#de75a8" stroke-width="1.51"/><path d="M353,538L316,781L599,720Z" fill="#de7fb5" stroke="#de7fb5" stroke-width="1.51"/><path d="M400,-1L383,93L482,162Z" fill="#d2b3d6" stroke="#d2b3d6" stroke-width="1.51"/><path d="M342,-165L400,-1L517,-156Z" fill="#dbc4e0" stroke="#dbc4e0" stroke-width="1.51"/><path d="M188,1300L319,1363L409,1056Z" fill="#b96a88" stroke="#b96a88" stroke-width="1.51"/><path d="M383,93L475,279L482,162Z" fill="#d0aad2" stroke="#d0aad2" stroke-width="1.51"/><path d="M81,389L454,400L475,279Z" fill="#d1a1cd" stroke="#d1a1cd" stroke-width="1.51"/><path d="M383,93L81,389L475,279Z" fill="#d0acd3" stroke="#d0acd3" stroke-width="1.51"/><path d="M217,1042L188,1300L409,1056Z" fill="#c8718f" stroke="#c8718f" stroke-width="1.51"/><path d="M81,389L353,538L454,400Z" fill="#d79cca" stroke="#d79cca" stroke-width="1.51"/><path d="M81,389L133,529L353,538Z" fill="#dd9ecc" stroke="#dd9ecc" stroke-width="1.51"/><path d="M82,81L45,142L383,93Z" fill="#d8c0de" stroke="#d8c0de" stroke-width="1.51"/><path d="M45,142L81,389L383,93Z" fill="#d5b8d9" stroke="#d5b8d9" stroke-width="1.51"/><path d="M360,927L217,1042L409,1056Z" fill="#d67394" stroke="#d67394" stroke-width="1.51"/><path d="M342,-165L222,-172L400,-1Z" fill="#ddcae3" stroke="#ddcae3" stroke-width="1.51"/><path d="M82,81L383,93L400,-1Z" fill="#d6bddc" stroke="#d6bddc" stroke-width="1.51"/><path d="M222,-172L82,81L400,-1Z" fill="#dbc8e2" stroke="#dbc8e2" stroke-width="1.51"/><path d="M133,529L316,781L353,538Z" fill="#e08ec0" stroke="#e08ec0" stroke-width="1.51"/><path d="M316,781L240,923L360,927Z" fill="#de7aa3" stroke="#de7aa3" stroke-width="1.51"/><path d="M240,923L217,1042L360,927Z" fill="#db7999" stroke="#db7999" stroke-width="1.51"/><path d="M133,529L106,760L316,781Z" fill="#e58cbb" stroke="#e58cbb" stroke-width="1.51"/><path d="M59,660L106,760L133,529Z" fill="#e796c2" stroke="#e796c2" stroke-width="1.51"/><path d="M188,1300L55,1423L319,1363Z" fill="#af6c80" stroke="#af6c80" stroke-width="1.51"/><path d="M90,-140L82,81L222,-172Z" fill="#e1d3e8" stroke="#e1d3e8" stroke-width="1.51"/><path d="M106,760L240,923L316,781Z" fill="#e482ad" stroke="#e482ad" stroke-width="1.51"/><path d="M-137,1223L188,1300L217,1042Z" fill="#c77a92" stroke="#c77a92" stroke-width="1.51"/><path d="M-40,-268L90,-140L222,-172Z" fill="#e6dded" stroke="#e6dded" stroke-width="1.51"/><path d="M-140,961L217,1042L240,923Z" fill="#e1839d" stroke="#e1839d" stroke-width="1.51"/><path d="M106,760L-140,961L240,923Z" fill="#e689aa" stroke="#e689aa" stroke-width="1.51"/><path d="M-140,961L-137,1223L217,1042Z" fill="#d9869b" stroke="#d9869b" stroke-width="1.51"/><path d="M-137,1223L55,1423L188,1300Z" fill="#ba7889" stroke="#ba7889" stroke-width="1.51"/><path d="M45,142L-6,395L81,389Z" fill="#d7b7d9" stroke="#d7b7d9" stroke-width="1.51"/><path d="M-131,5L82,81L90,-140Z" fill="#e1d4e8" stroke="#e1d4e8" stroke-width="1.51"/><path d="M-117,458L59,660L133,529Z" fill="#e6a2cd" stroke="#e6a2cd" stroke-width="1.51"/><path d="M-6,395L-117,458L133,529Z" fill="#e1acd3" stroke="#e1acd3" stroke-width="1.51"/><path d="M81,389L-6,395L133,529Z" fill="#deaad2" stroke="#deaad2" stroke-width="1.51"/><path d="M-140,961L-174,998L-137,1223Z" fill="#df8b9d" stroke="#df8b9d" stroke-width="1.51"/><path d="M-137,1223L-142,1391L55,1423Z" fill="#b97a89" stroke="#b97a89" stroke-width="1.51"/><path d="M59,660L-140,961L106,760Z" fill="#ed90b6" stroke="#ed90b6" stroke-width="1.51"/><path d="M-40,-268L-131,5L90,-140Z" fill="#e8e1ef" stroke="#e8e1ef" stroke-width="1.51"/><path d="M-292,647L-140,961L59,660Z" fill="#f197bd" stroke="#f197bd" stroke-width="1.51"/><path d="M-131,5L45,142L82,81Z" fill="#decde4" stroke="#decde4" stroke-width="1.51"/><path d="M-267,214L-270,275L-6,395Z" fill="#ddc1de" stroke="#ddc1de" stroke-width="1.51"/><path d="M-267,214L-6,395L45,142Z" fill="#dbc2de" stroke="#dbc2de" stroke-width="1.51"/><path d="M-117,458L-292,647L59,660Z" fill="#eba5cc" stroke="#eba5cc" stroke-width="1.51"/><path d="M-131,5L-181,28L45,142Z" fill="#e1d2e7" stroke="#e1d2e7" stroke-width="1.51"/><path d="M-181,28L-267,214L45,142Z" fill="#e0cde5" stroke="#e0cde5" stroke-width="1.51"/><path d="M-305,-187L-131,5L-40,-268Z" fill="#ebe5f2" stroke="#ebe5f2" stroke-width="1.51"/><path d="M-270,275L-117,458L-6,395Z" fill="#e0b8da" stroke="#e0b8da" stroke-width="1.51"/><path d="M-174,998L-191,1218L-137,1223Z" fill="#d3879a" stroke="#d3879a" stroke-width="1.51"/><path d="M-292,647L-174,998L-140,961Z" fill="#ef94b1" stroke="#ef94b1" stroke-width="1.51"/><path d="M-191,1218L-142,1391L-137,1223Z" fill="#c38090" stroke="#c38090" stroke-width="1.51"/><path d="M-305,-187L-181,28L-131,5Z" fill="#e8dfee" stroke="#e8dfee" stroke-width="1.51"/><path d="M-270,275L-330,534L-117,458Z" fill="#e5b7d9" stroke="#e5b7d9" stroke-width="1.51"/><path d="M-330,534L-292,647L-117,458Z" fill="#ecacd2" stroke="#ecacd2" stroke-width="1.51"/><path d="M-292,647L-191,1218L-174,998Z" fill="#eb91a6" stroke="#eb91a6" stroke-width="1.51"/><path d="M-305,-187L-267,214L-181,28Z" fill="#e7daeb" stroke="#e7daeb" stroke-width="1.51"/><path d="M-292,647L-330,534L-191,1218Z" fill="#f399bb" stroke="#f399bb" stroke-width="1.51"/><path d="M-330,534L-270,275L-267,214Z" fill="#e1c0dd" stroke="#e1c0dd" stroke-width="1.51"/><path d="M-305,-187L-330,534L-267,214Z" fill="#e2cde5" stroke="#e2cde5" stroke-width="1.51"/></svg>